# xmcd CD database file
#
# Track frame offsets:
#	150
#	23842
#	57112
#	76652
#	107982
#	129302
#	143495
#	163810
#	184575
#	188367
#	206337
#	237535
#	252960
#	282297
#
# Disc length: 4111 seconds
#
# Revision: 0
# Processed by: cddbd v1.5.1PL0 Copyright (c) Steve Scherf et al.
# Submitted via: CDex 1.51
#
DISCID=b4100d0e
DTITLE=Gerard Brooks and Langham Sinfonia - Organ Concertos
DYEAR=1992
DGENRE=Organ and Orchestra
TTITLE0=C.Wesley--Concerto No.4 in G  I.Allegro
TTITLE1=C.Wesley--Concerto No.4 in G  II.Largo
TTITLE2=C.Wesley--Concerto No.4 in G  III.Allegro moderato
TTITLE3=Handel--Concerto Op.7, No.4  I.Adagio
TTITLE4=Handel--Concerto Op.7, No.4  II.Allegro cosi cosi
TTITLE5=Handel--Concerto Op.7, No.4  III.Organo ad libitum
TTITLE6=Handel--Concerto Op.7, No.4  IV.Allegro
TTITLE7=Stanley--Concerto in C  I.Allegro
TTITLE8=Stanley--Concerto in C  II.Lento
TTITLE9=Stanley--Concerto in C  III.Rondeau
TTITLE10=Arne--Concerto No.3  I.Allegro
TTITLE11=Arne--Concerto No.3  II.Con Spirito
TTITLE12=Arne--Concerto No.3  III.Minuetto
TTITLE13=Arne--Concerto No.3  IV.Moderato
EXTD=YEAR: 1992
EXTT0=
EXTT1=
EXTT2=
EXTT3=
EXTT4=
EXTT5=
EXTT6=
EXTT7=
EXTT8=
EXTT9=
EXTT10=
EXTT11=
EXTT12=
EXTT13=
PLAYORDER=
